<?xml version="1.0" standalone="no"?>
<!DOCTYPE svg PUBLIC "-//W3C//DTD SVG 20010904//EN"
 "http://www.w3.org/TR/2001/REC-SVG-20010904/DTD/svg10.dtd">
<svg version="1.0" xmlns="http://www.w3.org/2000/svg"
 width="260.000000pt" height="260.000000pt" viewBox="0 0 260.000000 260.000000"
 preserveAspectRatio="xMidYMid meet">
<metadata>
Created by potrace 1.11, written by Peter Selinger 2001-2013
</metadata>
<g transform="translate(0.000000,260.000000) scale(0.100000,-0.100000)"
fill="#000000" stroke="none">
<path d="M0 1300 l0 -1300 1300 0 1300 0 0 1300 0 1300 -1300 0 -1300 0 0
-1300z m260 615 l0 -75 -60 0 -60 0 0 75 0 75 60 0 60 0 0 -75z m850 0 l0 -75
-60 0 -60 0 0 75 0 75 60 0 60 0 0 -75z m485 -244 c73 -32 144 -125 145 -188
0 -21 -5 -23 -54 -23 l-55 0 -26 49 c-36 65 -73 85 -151 79 -113 -8 -165 -77
-172 -229 -8 -155 40 -253 136 -278 77 -21 163 19 192 90 12 27 16 29 71 29
35 0 59 -4 59 -11 0 -26 -54 -121 -83 -145 -77 -65 -193 -86 -302 -55 -141 42
-230 231 -195 421 27 152 109 248 237 280 50 12 148 3 198 -19z m555 8 c54
-16 115 -71 144 -128 28 -54 49 -151 44 -201 l-3 -35 -243 -3 -243 -2 6 -38
c23 -132 84 -195 191 -194 64 0 107 22 137 67 21 33 25 35 80 35 33 0 57 -4
57 -10 0 -26 -43 -91 -84 -127 -55 -49 -117 -68 -211 -67 -82 1 -127 18 -185
70 -163 148 -137 503 44 609 76 44 169 53 266 24z m-1892 -421 c-3 -400 -4
-425 -23 -462 -11 -22 -32 -48 -46 -59 -31 -22 -111 -39 -145 -31 -21 5 -24
12 -24 55 l0 49 34 0 c19 0 44 9 57 19 l24 19 3 416 3 416 60 0 60 0 -3 -422z
m212 177 c0 -274 5 -299 62 -335 26 -17 45 -20 91 -17 68 4 103 26 132 83 18
35 20 63 23 277 l3 237 60 0 59 0 0 -345 0 -345 -60 0 -60 0 0 48 0 47 -20
-29 c-44 -67 -151 -100 -251 -76 -69 17 -131 77 -147 142 -8 30 -12 141 -12
302 l0 256 60 0 60 0 0 -245z m640 -100 l0 -345 -60 0 -60 0 0 345 0 345 60 0
60 0 0 -345z m1380 -245 l0 -100 -65 0 -65 0 0 100 0 100 65 0 65 0 0 -100z"/>
<path d="M1985 1593 c-56 -14 -106 -79 -120 -156 l-7 -37 176 0 176 0 0 33 c0
108 -112 188 -225 160z"/>
</g>
</svg>
